<?xml version="1.0" encoding="UTF-8"?> <svg xmlns="http://www.w3.org/2000/svg" xmlns:xlink="http://www.w3.org/1999/xlink" width="498px" height="262px" viewBox="0 0 498 262"><!-- Generator: Sketch 46.2 (44496) - http://www.bohemiancoding.com/sketch --><title>logo_color</title><desc>Created with Sketch.</desc><defs></defs><g id="Page-1" stroke="none" stroke-width="1" fill="none" fill-rule="evenodd"><g id="logo_color"><path d="M497.7,3.6 L497.7,53.5 C497.7,54.3 497.4,55.2 496.8,55.8 L476,76.6 C474,78.6 470.5,77.2 470.5,74.4 L470.5,30.8 C470.5,29 469.1,27.6 467.3,27.6 L423.8,27.6 C421,27.6 419.5,24.2 421.5,22.2 L442.3,1.4 C442.9,0.8 443.7,0.5 444.6,0.5 L494.5,0.5 C496.3,0.4 497.7,1.8 497.7,3.6" id="Shape" fill="#e10e49" fill-rule="nonzero"></path><path d="M494.6,260.8 L444.7,260.8 C443.9,260.8 443,260.5 442.4,259.9 L421.5,239 C419.5,237 420.9,233.5 423.7,233.5 L467.3,233.5 C469.1,233.5 470.5,232.1 470.5,230.3 L470.5,186.8 C470.5,184 473.9,182.5 475.9,184.5 L496.7,205.3 C497.3,205.9 497.6,206.7 497.6,207.6 L497.6,257.5 C497.7,259.4 496.3,260.8 494.6,260.8" id="Shape" fill="#002664" fill-rule="nonzero"></path><path d="M182.8,77.4 C183.8,76.6 184.5,76.1 185.2,75.6 C192.6,70 201,66.6 210.2,65.5 C223.3,63.9 236,65.1 248.1,70.4 C267,78.6 278.6,93 283.6,112.8 C285.6,120.5 286,128.4 285.4,136.4 C284.7,146.8 281.9,156.6 276.6,165.6 C269,178.7 257.8,187.5 243.6,192.6 C234.7,195.8 225.6,196.9 216.2,196.5 C209.3,196.2 202.5,194.9 196,192.4 C191,190.5 186.6,187.7 182.6,184.1 C182.4,183.9 182.2,183.7 181.9,183.5 C181.1,183 180.1,183.4 179.9,184.3 C179.4,186.5 178.9,188.8 178.4,191 C178.3,191.4 178.2,191.9 178.1,192.3 C177.6,193.9 176.5,194.7 174.8,194.7 C173,194.7 171.2,194.7 169.4,194.7 C165.9,194.7 162.4,194.7 158.8,194.7 C156.4,194.7 155.4,193.8 155.3,191.3 C155.3,190.8 155.3,190.2 155.3,189.7 C155.3,137.9 155.3,86.1 155.3,34.3 C155.3,33.6 155.3,32.8 155.4,32.1 C155.6,30.3 156.5,29.5 158.2,29.4 C158.6,29.4 159,29.4 159.4,29.4 C165.8,29.4 172.2,29.5 178.6,29.4 C182,29.4 182.6,30.9 182.6,33.4 C182.6,47.4 182.6,61.4 182.6,75.4 L182.6,77.4 L182.8,77.4 Z M258.6,129.8 C258.6,127.1 258.3,123.6 257.5,120.1 C253.9,105.3 244.8,95.9 230.1,91.9 C225.4,90.6 220.5,90.5 215.7,90.8 C211.3,91 206.9,91.6 202.7,93 C195.2,95.4 188.9,99.8 183.4,105.4 C182.9,105.9 182.8,106.5 182.8,107.1 C182.8,122.7 182.8,138.2 182.8,153.8 C182.8,154.5 183,155.1 183.5,155.6 C187.2,159.5 191.3,162.9 196,165.4 C206.6,170.9 217.9,172.1 229.5,169.6 C240.4,167.2 248.7,161 253.9,151 C257.3,144.6 258.5,137.7 258.6,129.8 L258.6,129.8 Z" id="Shape" fill="#e10e49" fill-rule="nonzero"></path><path d="M28.8,143.5 C29.9,147.7 31.6,151.4 34,154.7 C39.7,162.6 47.4,167.5 56.9,169.7 C61.8,170.8 66.7,171 71.6,170.9 C77.7,170.7 83.8,169.9 89.7,168.2 C97,166.1 103.3,162.4 109.2,157.7 C110.9,156.3 112,156.4 113.3,158.1 C117.1,163.2 120.8,168.2 124.5,173.3 C125.4,174.6 125.4,175.6 124.3,176.7 C123.8,177.2 123.3,177.6 122.8,178.1 C112.8,186.4 101.4,191.8 88.6,194.4 C80.1,196.2 71.5,197 62.8,196.4 C48.6,195.5 35.6,191.1 24.3,182.2 C13.4,173.6 6.3,162.5 2.7,149.1 C-1.2,134.6 -0.7,120.1 4.7,106 C12.5,85.9 27.3,73.3 48,67.3 C55.5,65.1 63.3,64.6 71.1,64.9 C80.6,65.3 89.6,67.5 98,71.8 C112.7,79.3 122.5,91.1 128.1,106.5 C130.8,114 132,121.8 132.1,129.8 C132.1,133.1 132.1,136.5 132.1,139.8 C132.1,140.1 132.1,140.4 132.1,140.7 C131.9,142.7 131,143.5 129,143.6 C128.6,143.6 128.1,143.6 127.7,143.6 C95.5,143.6 63.2,143.6 31,143.6 L28.8,143.5 L28.8,143.5 Z M104.3,118 C103.8,113.9 102.5,110.2 100.3,106.8 C96.5,100.9 91.2,96.8 84.8,94 C77.7,90.9 70.4,89.9 62.7,90.7 C55.3,91.4 48.5,93.7 42.4,98 C35.9,102.6 31.2,108.6 29,116.3 C28.8,116.8 28.7,117.4 28.6,118 L104.3,118 Z" id="Shape" fill="#e10e49" fill-rule="nonzero"></path><path d="M335,78.7 C336,79.1 336.6,78.6 337.3,78 C342.7,73.2 348.9,69.5 355.8,67.4 C360.6,65.9 365.6,65 370.6,64.8 C379,64.5 387.2,65.5 395.1,68.2 C408.7,72.9 418,82.2 423.3,95.6 C425.7,101.8 427,108.3 427.4,115 C427.6,118.9 427.7,122.7 427.7,126.6 C427.7,147.8 427.7,169.1 427.7,190.3 C427.7,190.9 427.7,191.6 427.6,192.2 C427.3,193.6 426.4,194.4 425,194.6 C424.6,194.7 424.1,194.6 423.7,194.6 C417.1,194.6 410.6,194.6 404,194.6 C403.7,194.6 403.3,194.6 403,194.6 C401.6,194.5 400.6,193.6 400.5,192.2 C400.4,191.5 400.4,190.8 400.4,190.1 C400.4,167.5 400.4,144.8 400.4,122.2 C400.4,117.9 400,113.7 399,109.6 C396.5,99.8 390.3,93.7 380.5,91.7 C365.7,88.7 352.4,92.1 340.9,102.1 C339.5,103.3 338.3,104.9 337,106.3 C336.5,106.8 336.3,107.3 336.4,108 C336.4,108.4 336.4,108.8 336.4,109.2 C336.4,136.1 336.4,163.1 336.4,190 C336.4,190.8 336.4,191.6 336.3,192.3 C336.1,193.7 335.2,194.4 333.8,194.6 C333.4,194.6 333,194.6 332.6,194.6 C326,194.6 319.5,194.6 312.9,194.6 C312.5,194.6 312.1,194.6 311.7,194.6 C310.2,194.5 309.3,193.6 309.1,192.1 C309,191.5 309,190.9 309,190.3 C309,150.5 309,110.7 309,70.9 C309,70.4 309,69.8 309.1,69.3 C309.3,67.7 310.2,66.8 311.7,66.7 C312,66.7 312.4,66.7 312.7,66.7 C318,66.7 323.3,66.7 328.5,66.7 C331.2,66.7 332.2,67.5 332.8,70.1 C333.4,72.7 334,75.2 334.5,77.8 C334.8,78.1 334.9,78.4 335,78.7" id="Shape" fill="#e10e49" fill-rule="nonzero"></path><path d="M7.25488281,261 L7.25488281,226.316406 L25.5107422,226.316406 C27.101896,226.316406 28.5449154,226.557615 29.8398437,227.040039 C31.1347721,227.522463 32.1842408,228.178381 32.9882812,229.007812 C33.7923217,229.837244 34.4101541,230.776687 34.8417969,231.826172 C35.2734397,232.875656 35.4892578,233.984369 35.4892578,235.152344 C35.4892578,237.234385 34.9222062,238.990553 33.7880859,240.420898 C32.6539657,241.851244 31.2321049,242.744139 29.5224609,243.099609 C31.4013766,243.387371 32.9798113,244.335278 34.2578125,245.943359 C35.5358137,247.55144 36.1748047,249.430328 36.1748047,251.580078 C36.1748047,254.322279 35.2946052,256.577791 33.5341797,258.34668 C31.7737542,260.115569 29.2939613,261 26.0947266,261 L7.25488281,261 Z M14.6435547,254.5 L24.2158203,254.5 C25.6038481,254.5 26.6871706,254.148767 27.4658203,253.446289 C28.24447,252.743812 28.6337891,251.774746 28.6337891,250.539062 C28.6337891,249.404942 28.24447,248.465499 27.4658203,247.720703 C26.6871706,246.975908 25.6038481,246.603516 24.2158203,246.603516 L14.6435547,246.603516 L14.6435547,254.5 Z M14.6435547,240.103516 L23.9111328,240.103516 C25.1468161,240.103516 26.1285771,239.773441 26.8564453,239.113281 C27.5843135,238.453122 27.9482422,237.564459 27.9482422,236.447266 C27.9482422,235.363927 27.5843135,234.487959 26.8564453,233.819336 C26.1285771,233.150713 25.1468161,232.816406 23.9111328,232.816406 L14.6435547,232.816406 L14.6435547,240.103516 Z M43.0791016,261 L56.4345703,226.316406 L65.7021484,226.316406 L79.0576172,261 L70.6787109,261 L68.4951172,255.134766 L53.6416016,255.134766 L51.4580078,261 L43.0791016,261 Z M55.6474609,248.634766 L66.4638672,248.634766 L61.0556641,233.705078 L55.6474609,248.634766 Z M87.2568359,261 L87.2568359,226.316406 L94.8486328,226.316406 L110.920898,248.101562 L110.920898,226.316406 L118.30957,226.316406 L118.30957,261 L111.174805,261 L94.6455078,238.376953 L94.6455078,261 L87.2568359,261 Z M128.489258,243.683594 C128.489258,240.17967 129.30175,237.056654 130.926758,234.314453 C132.551766,231.572252 134.769192,229.456388 137.579102,227.966797 C140.389011,226.477206 143.528954,225.732422 146.999023,225.732422 C148.827158,225.732422 150.524081,225.965167 152.089844,226.430664 C153.655607,226.896161 155.018223,227.539384 156.177734,228.360352 C157.337245,229.181319 158.344397,230.069982 159.199219,231.026367 C160.054041,231.982752 160.803057,233.044916 161.446289,234.212891 L155.098633,237.335938 C154.353837,235.880201 153.245125,234.67839 151.772461,233.730469 C150.299797,232.782547 148.708667,232.308594 146.999023,232.308594 C143.833643,232.308594 141.222667,233.383453 139.166016,235.533203 C137.109365,237.682953 136.081055,240.399723 136.081055,243.683594 C136.081055,246.967464 137.109365,249.688466 139.166016,251.84668 C141.222667,254.004894 143.833643,255.083984 146.999023,255.083984 C148.708667,255.083984 150.299797,254.605799 151.772461,253.649414 C153.245125,252.693029 154.353837,251.486986 155.098633,250.03125 L161.446289,253.103516 C160.78613,254.27149 160.037114,255.333654 159.199219,256.290039 C158.361324,257.246424 157.358404,258.139319 156.19043,258.96875 C155.022455,259.798181 153.655607,260.449867 152.089844,260.923828 C150.524081,261.397789 148.827158,261.634766 146.999023,261.634766 C144.409167,261.634766 141.975923,261.194666 139.699219,260.314453 C137.422515,259.43424 135.458993,258.219734 133.808594,256.670898 C132.158195,255.122063 130.859054,253.226248 129.911133,250.983398 C128.963211,248.740549 128.489258,246.307305 128.489258,243.683594 Z M169.188477,243.683594 C169.188477,241.110664 169.641272,238.707042 170.546875,236.472656 C171.452478,234.23827 172.700838,232.338224 174.291992,230.772461 C175.883146,229.206698 177.804351,227.975265 180.055664,227.078125 C182.306977,226.180985 184.727526,225.732422 187.317383,225.732422 C190.770525,225.732422 193.872382,226.494133 196.623047,228.017578 C199.373712,229.541023 201.527661,231.673814 203.084961,234.416016 C204.64226,237.158217 205.420898,240.247379 205.420898,243.683594 C205.420898,247.119809 204.64226,250.208971 203.084961,252.951172 C201.527661,255.693373 199.373712,257.826164 196.623047,259.349609 C193.872382,260.873054 190.770525,261.634766 187.317383,261.634766 C184.727526,261.634766 182.306977,261.186202 180.055664,260.289062 C177.804351,259.391923 175.883146,258.16049 174.291992,256.594727 C172.700838,255.028964 171.452478,253.128917 170.546875,250.894531 C169.641272,248.660145 169.188477,246.256523 169.188477,243.683594 Z M176.780273,243.683594 C176.780273,246.967464 177.745108,249.688466 179.674805,251.84668 C181.604502,254.004894 184.152002,255.083984 187.317383,255.083984 C190.465836,255.083984 193.004873,254.004894 194.93457,251.84668 C196.864267,249.688466 197.829102,246.967464 197.829102,243.683594 C197.829102,240.382796 196.864267,237.661795 194.93457,235.520508 C193.004873,233.379221 190.465836,232.308594 187.317383,232.308594 C184.135075,232.308594 181.583343,233.379221 179.662109,235.520508 C177.740876,237.661795 176.780273,240.382796 176.780273,243.683594 Z" id="BANCO" fill="#002664"></path></g></g></svg> 